<?xml version="1.0" encoding="UTF-8" standalone="no"?>
<!-- Created with Inkscape (http://www.inkscape.org/) -->

<svg
   width="357.6731mm"
   height="190mm"
   viewBox="0 0 357.6731 190"
   version="1.1"
   id="svg8462"
   sodipodi:docname="logo_large.svg"
   inkscape:version="1.1.2 (b8e25be833, 2022-02-05)"
   inkscape:export-filename="C:\MisadventureCode\OrangeGate\Images\logo_large.png"
   inkscape:export-xdpi="96"
   inkscape:export-ydpi="96"
   xmlns:inkscape="http://www.inkscape.org/namespaces/inkscape"
   xmlns:sodipodi="http://sodipodi.sourceforge.net/DTD/sodipodi-0.dtd"
   xmlns="http://www.w3.org/2000/svg"
   xmlns:svg="http://www.w3.org/2000/svg">
  <sodipodi:namedview
     id="namedview8464"
     pagecolor="#505050"
     bordercolor="#ffffff"
     borderopacity="1"
     inkscape:pageshadow="0"
     inkscape:pageopacity="0"
     inkscape:pagecheckerboard="1"
     inkscape:document-units="mm"
     showgrid="false"
     inkscape:zoom="0.22645918"
     inkscape:cx="-514.44151"
     inkscape:cy="737.43976"
     inkscape:window-width="1920"
     inkscape:window-height="1017"
     inkscape:window-x="-8"
     inkscape:window-y="-8"
     inkscape:window-maximized="1"
     inkscape:current-layer="layer1"
     fit-margin-top="0"
     fit-margin-left="0"
     fit-margin-right="0"
     fit-margin-bottom="0" />
  <defs
     id="defs8459" />
  <g
     inkscape:label="Layer 1"
     inkscape:groupmode="layer"
     id="layer1"
     transform="translate(3.3906112e-5)">
    <g
       id="g9808"
       transform="matrix(2.313751,0,0,2.313751,-504.0353,-247.26019)"
       style="fill:#000000;fill-opacity:0.25">
      <path
         id="rect846-72"
         style="fill:#000000;fill-opacity:0.25;stroke-width:0.54134"
         d="m 268.7814,147.68626 v 11.99979 a 3.9999999,3.9999999 0 0 1 4.00028,-3.99976 3.9999999,3.9999999 0 0 1 3.99975,3.99976 v 8.00002 19.99982 h 8.00003 v -19.99982 -8.00002 a 3.9999999,3.9999999 0 0 1 3.99976,-3.99976 3.9999999,3.9999999 0 0 1 4.00027,3.99976 v -11.99979 h -8.00002 -3.99976 z" />
      <path
         id="rect846-4"
         style="fill:#000000;fill-opacity:0.25;stroke-width:0.54134"
         d="m 294.89868,147.68652 v 20.00033 19.99981 h 12.0003 11.99979 v -8.00003 h -11.99979 a 3.9999999,3.9999999 0 0 1 -4.00027,-3.99976 3.9999999,3.9999999 0 0 1 4.00027,-4.00027 h 11.99979 v -3.99975 -4.00028 h -11.99979 a 3.9999999,3.9999999 0 0 1 -4.00027,-3.99975 3.9999999,3.9999999 0 0 1 4.00027,-4.00027 h 11.99979 v -8.00003 h -11.99979 z" />
      <path
         id="rect846-4-7"
         style="fill:#000000;fill-opacity:0.25;stroke-width:0.54134"
         d="m 347.13265,105.56945 v 20.00033 19.99981 h 12.0003 11.99978 v -8.00003 h -11.99978 a 3.9999999,3.9999999 0 0 1 -4.00027,-3.99976 3.9999999,3.9999999 0 0 1 4.00027,-4.00027 h 11.99978 v -3.99975 -4.00028 h -11.99978 a 3.9999999,3.9999999 0 0 1 -4.00027,-3.99975 3.9999999,3.9999999 0 0 1 4.00027,-4.00027 h 11.99978 v -8.00003 h -11.99978 z" />
      <path
         id="rect846-65"
         style="fill:#000000;fill-opacity:0.25;stroke-width:0.54134"
         d="m 321.01536,105.56919 v 20.00033 19.99981 h 11.99978 12.00031 v -19.99981 h -12.00031 v 3.99975 a 3.9999999,3.9999999 0 0 1 4.00028,4.00028 3.9999999,3.9999999 0 0 1 -4.00028,3.99975 3.9999999,3.9999999 0 0 1 -3.99975,-3.99975 v -16.00006 a 3.9999999,3.9999999 0 0 1 3.99975,-4.00027 3.9999999,3.9999999 0 0 1 4.00028,4.00027 v 3.99975 h 8.00003 v -16.00005 h -12.00031 z" />
      <path
         id="rect846-65-7"
         style="fill:#000000;fill-opacity:0.25;stroke-width:0.54134"
         d="m 216.54684,147.686 v 20.00033 19.99981 h 11.99978 12.00031 v -19.99981 h -12.00031 v 3.99975 a 3.9999999,3.9999999 0 0 1 4.00028,4.00028 3.9999999,3.9999999 0 0 1 -4.00028,3.99975 3.9999999,3.9999999 0 0 1 -3.99975,-3.99975 V 159.6863 a 3.9999999,3.9999999 0 0 1 3.99975,-4.00027 3.9999999,3.9999999 0 0 1 4.00028,4.00027 v 3.99975 h 8.00003 V 147.686 h -12.00031 z" />
      <path
         id="rect846-16"
         style="fill:#000000;fill-opacity:0.25;stroke-width:0.54134"
         d="m 294.8986,105.56918 v 20.00033 19.99982 h 1.99988 v -8.00003 a 3.9999999,3.9999999 0 0 1 3.99976,-3.99976 3.9999999,3.9999999 0 0 1 4.00027,3.99976 v 8.00003 h 1.99988 11.99978 v -19.99982 -20.00033 h -1.99988 v 8.00003 a 3.9999999,3.9999999 0 0 1 -3.99975,4.00027 3.9999999,3.9999999 0 0 1 -4.00028,-4.00027 v -8.00003 h -1.99987 z" />
      <path
         id="rect846-1"
         style="fill:#000000;fill-opacity:0.25;stroke-width:0.54134"
         d="m 242.66404,105.56892 v 20.00033 19.99981 h 8.00003 v -3.99976 -8.00002 a 3.9999999,3.9999999 0 0 1 3.99975,-4.00028 3.9999999,3.9999999 0 0 1 4.00028,4.00028 v 8.00002 3.99976 h 8.00003 v -11.99978 a 3.9999999,3.9999999 0 0 0 -4.00028,-4.00028 3.9999999,3.9999999 0 0 0 4.00028,-3.99975 v -20.00033 h -12.00031 z m 11.99978,8.00003 a 3.9999999,3.9999999 0 0 1 4.00028,4.00027 3.9999999,3.9999999 0 0 1 -4.00028,3.99976 3.9999999,3.9999999 0 0 1 -3.99975,-3.99976 3.9999999,3.9999999 0 0 1 3.99975,-4.00027 z" />
      <path
         id="rect846-66"
         style="fill:#000000;fill-opacity:0.25;stroke-width:0.54134"
         d="m 216.54676,105.56917 v 19.99982 19.99981 h 11.99978 12.00031 v -19.99981 -19.99982 h -12.00031 z m 11.99978,7.99951 a 3.9999999,3.9999999 0 0 1 4.00028,4.00028 v 8.00003 8.00002 a 3.9999999,3.9999999 0 0 1 -4.00028,3.99976 3.9999999,3.9999999 0 0 1 -3.99975,-3.99976 v -8.00002 -8.00003 a 3.9999999,3.9999999 0 0 1 3.99975,-4.00028 z" />
      <path
         id="rect846-67"
         style="fill:#000000;fill-opacity:0.25;stroke-width:0.54134"
         d="m 268.78132,105.56944 v 19.99981 19.99981 h 8.00003 v -3.99975 -4.17029 -7.82949 c 0,-2.216 1.78376,-4.00028 3.99975,-4.00028 2.216,0 4.00027,1.78428 4.00027,4.00028 v 7.82949 4.17029 3.99975 h 8.00003 v -19.99981 -19.99981 h -12.0003 z m 11.99978,8.00003 a 3.9999999,3.9999999 0 0 1 4.00027,3.99975 3.9999999,3.9999999 0 0 1 -4.00027,4.00028 3.9999999,3.9999999 0 0 1 -3.99975,-4.00028 3.9999999,3.9999999 0 0 1 3.99975,-3.99975 z" />
      <path
         id="rect846-67-4"
         style="fill:#000000;fill-opacity:0.25;stroke-width:0.54134"
         d="m 242.66413,147.68626 v 19.99981 19.99981 h 8.00002 v -3.99975 -4.17029 -7.82949 c 0,-2.216 1.78376,-4.00028 3.99976,-4.00028 2.216,0 4.00027,1.78428 4.00027,4.00028 v 7.82949 4.17029 3.99975 h 8.00003 v -19.99981 -19.99981 h -12.0003 z m 11.99978,8.00003 a 3.9999999,3.9999999 0 0 1 4.00027,3.99975 3.9999999,3.9999999 0 0 1 -4.00027,4.00028 3.9999999,3.9999999 0 0 1 -3.99976,-4.00028 3.9999999,3.9999999 0 0 1 3.99976,-3.99975 z" />
    </g>
    <path
       id="rect846-72-5"
       style="fill:#ffffff;fill-opacity:1;stroke-width:1.25253"
       d="m 120.8578,97.449042 v 27.764528 a 9.254995,9.2550038 0 0 1 9.25564,-9.25445 9.254995,9.2550038 0 0 1 9.25442,9.25445 v 18.51005 46.27461 h 18.51006 v -46.27461 -18.51005 a 9.254995,9.2550038 0 0 1 9.25444,-9.25445 9.254995,9.2550038 0 0 1 9.25562,9.25445 V 97.449042 h -18.51004 -9.25444 z" />
    <path
       id="rect846-4-3"
       style="fill:#ffffff;fill-opacity:1;stroke-width:1.25253"
       d="m 181.28663,97.449643 v 46.275787 46.27458 h 27.76568 27.7645 v -18.51008 h -27.7645 a 9.254995,9.2550038 0 0 1 -9.25562,-9.25445 9.254995,9.2550038 0 0 1 9.25562,-9.25563 h 27.7645 v -9.25442 -9.25565 h -27.7645 a 9.254995,9.2550038 0 0 1 -9.25562,-9.25443 9.254995,9.2550038 0 0 1 9.25562,-9.25563 h 27.7645 V 97.449643 h -27.7645 z" />
    <path
       id="rect846-4-7-0"
       style="fill:#ffffff;fill-opacity:1;stroke-width:1.25253"
       d="M 302.14291,0.00123051 V 46.277014 92.551594 h 27.76568 27.76448 V 74.041517 h -27.76448 a 9.254995,9.2550038 0 0 1 -9.25562,-9.254449 9.254995,9.2550038 0 0 1 9.25562,-9.255628 h 27.76448 v -9.254426 -9.255652 h -27.76448 a 9.254995,9.2550038 0 0 1 -9.25562,-9.254425 9.254995,9.2550038 0 0 1 9.25562,-9.255629 h 27.76448 V 0.00123051 h -27.76448 z" />
    <path
       id="rect846-65-3"
       style="fill:#ffffff;fill-opacity:1;stroke-width:1.25253"
       d="M 241.71406,6.2893169e-4 V 46.276412 92.550993 h 27.76448 27.7657 V 46.276412 h -27.7657 v 9.254426 a 9.254995,9.2550038 0 0 1 9.25564,9.255652 9.254995,9.2550038 0 0 1 -9.25564,9.254425 9.254995,9.2550038 0 0 1 -9.25442,-9.254425 V 27.766335 a 9.254995,9.2550038 0 0 1 9.25442,-9.255629 9.254995,9.2550038 0 0 1 9.25564,9.255629 v 9.254426 h 18.51006 V 6.2893169e-4 h -27.7657 z" />
    <path
       id="rect846-65-7-5"
       style="fill:#ffffff;fill-opacity:1;stroke-width:1.25253"
       d="m 1.5119379e-4,97.44844 v 46.27578 46.27458 H 27.764628 55.530331 V 143.72422 H 27.764628 v 9.25443 a 9.254995,9.2550038 0 0 1 9.255643,9.25565 9.254995,9.2550038 0 0 1 -9.255643,9.25443 9.254995,9.2550038 0 0 1 -9.254417,-9.25443 v -37.02015 a 9.254995,9.2550038 0 0 1 9.254417,-9.25563 9.254995,9.2550038 0 0 1 9.255643,9.25563 v 9.25442 h 18.51006 V 97.44844 H 27.764628 Z" />
    <path
       id="rect846-16-0"
       style="fill:#ffffff;fill-opacity:1;stroke-width:1.25253"
       d="M 181.28644,6.0579418e-4 V 46.276389 92.550993 h 4.62722 V 74.040915 a 9.254995,9.2550038 0 0 1 9.25444,-9.254448 9.254995,9.2550038 0 0 1 9.25562,9.254448 v 18.510078 h 4.62722 27.76448 V 46.276389 6.0579418e-4 H 232.1882 V 18.510683 a 9.254995,9.2550038 0 0 1 -9.25442,9.255629 9.254995,9.2550038 0 0 1 -9.25564,-9.255629 V 6.0579418e-4 h -4.6272 z" />
    <path
       id="rect846-1-0"
       style="fill:#ffffff;fill-opacity:1;stroke-width:1.25253"
       d="M 60.428791,4.21892e-6 V 46.275788 92.550368 h 18.51006 V 83.295919 64.785865 a 9.254995,9.2550038 0 0 1 9.254417,-9.255652 9.254995,9.2550038 0 0 1 9.255643,9.255652 v 18.510054 9.254449 H 115.95897 V 64.785865 a 9.254995,9.2550038 0 0 0 -9.25564,-9.255652 9.254995,9.2550038 0 0 0 9.25564,-9.254425 V 4.21892e-6 H 88.193268 Z M 88.193268,18.510082 a 9.254995,9.2550038 0 0 1 9.255643,9.255628 9.254995,9.2550038 0 0 1 -9.255643,9.254449 9.254995,9.2550038 0 0 1 -9.254417,-9.254449 9.254995,9.2550038 0 0 1 9.254417,-9.255628 z" />
    <path
       id="rect846-66-0"
       style="fill:#ffffff;fill-opacity:1;stroke-width:1.25253"
       d="M -3.3906112e-5,5.8265667e-4 V 46.275186 92.549767 H 27.764443 55.530146 V 46.275186 5.8265667e-4 H 27.764443 Z M 27.764443,18.509457 a 9.254995,9.2550038 0 0 1 9.255643,9.255652 V 46.275186 64.78524 A 9.254995,9.2550038 0 0 1 27.764443,74.039689 9.254995,9.2550038 0 0 1 18.510026,64.78524 V 46.275186 27.765109 a 9.254995,9.2550038 0 0 1 9.254417,-9.255652 z" />
    <path
       id="rect846-67-49"
       style="fill:#ffffff;fill-opacity:1;stroke-width:1.25253"
       d="M 120.85762,0.00120737 V 46.275788 92.550368 h 18.51006 V 83.295943 73.64693 55.53144 c 0,-5.127273 4.12717,-9.255652 9.25441,-9.255652 5.12727,0 9.25562,4.128379 9.25562,9.255652 v 18.11549 9.649013 9.254425 h 18.51006 V 46.275788 0.00120737 H 148.62209 Z M 148.62209,18.511285 a 9.254995,9.2550038 0 0 1 9.25562,9.254425 9.254995,9.2550038 0 0 1 -9.25562,9.255652 9.254995,9.2550038 0 0 1 -9.25441,-9.255652 9.254995,9.2550038 0 0 1 9.25441,-9.254425 z" />
    <path
       id="rect846-67-4-5"
       style="fill:#ffffff;fill-opacity:1;stroke-width:1.25253"
       d="m 60.429,97.449042 v 46.274578 46.27458 h 18.510036 v -9.25442 -9.64902 -18.11549 c 0,-5.12727 4.127173,-9.25565 9.25444,-9.25565 5.127268,0 9.25562,4.12838 9.25562,9.25565 v 18.11549 9.64902 9.25442 H 115.95916 V 143.72362 97.449042 H 88.193476 Z m 27.764476,18.510078 a 9.254995,9.2550038 0 0 1 9.25562,9.25442 9.254995,9.2550038 0 0 1 -9.25562,9.25566 9.254995,9.2550038 0 0 1 -9.25444,-9.25566 9.254995,9.2550038 0 0 1 9.25444,-9.25442 z" />
  </g>
</svg>
